<?xml version="1.0" standalone="no"?>
<!DOCTYPE svg PUBLIC "-//W3C//DTD SVG 20010904//EN"
 "http://www.w3.org/TR/2001/REC-SVG-20010904/DTD/svg10.dtd">
<svg version="1.0" xmlns="http://www.w3.org/2000/svg"
 width="579.000000pt" height="579.000000pt" viewBox="0 0 579.000000 579.000000"
 preserveAspectRatio="xMidYMid meet">
<metadata>
Created by potrace 1.11, written by Peter Selinger 2001-2013
</metadata>
<g transform="translate(0.000000,579.000000) scale(0.100000,-0.100000)"
fill="#000000" stroke="none">
<path d="M2857 5784 c-1 -1 -60 -4 -132 -8 -71 -3 -141 -8 -155 -10 -14 -3
-43 -7 -65 -10 -321 -41 -664 -150 -955 -303 -735 -386 -1259 -1051 -1466
-1858 -6 -23 -8 -31 -33 -156 -11 -52 -25 -139 -32 -194 -15 -111 -18 -514 -6
-643 9 -91 49 -324 67 -393 7 -24 13 -48 14 -54 16 -74 81 -264 128 -374 316
-749 908 -1315 1673 -1599 310 -116 632 -172 990 -174 98 -1 294 9 336 17 9 2
40 6 70 10 30 3 61 8 69 10 8 3 31 7 50 9 19 3 58 10 85 16 28 6 57 13 65 15
69 16 235 65 285 84 11 5 58 23 105 41 110 43 264 116 365 174 106 62 103 59
250 160 42 29 107 79 123 93 7 7 34 29 60 50 69 55 279 264 337 334 28 34 55
67 60 73 41 44 215 298 215 313 0 3 6 14 14 22 24 27 125 228 176 350 80 190
130 355 169 557 26 135 27 137 46 329 12 111 6 421 -10 565 -17 154 -85 471
-115 535 -4 11 -16 45 -26 75 -42 135 -132 332 -222 490 -423 737 -1150 1251
-1987 1405 -66 13 -85 15 -134 21 -30 3 -64 8 -75 10 -27 5 -334 21 -339 18z"/>
</g>
</svg>
